<svg xmlns="http://www.w3.org/2000/svg" width="1080" height="1350" viewBox="0 0 1080 1350">
<defs>
  <linearGradient id="bg" x1="0" y1="0" x2="1" y2="1">
    <stop offset="0" stop-color="#12131a"/><stop offset="0.48" stop-color="#25202f"/><stop offset="1" stop-color="#091014"/>
  </linearGradient>
  <radialGradient id="glow" cx="50%" cy="40%" r="65%">
    <stop offset="0" stop-color="#b88cff" stop-opacity=".25"/><stop offset="1" stop-color="#00d9c0" stop-opacity="0"/>
  </radialGradient>
  <filter id="soft"><feGaussianBlur stdDeviation="35"/></filter>
</defs>
<rect width="1080" height="1350" fill="url(#bg)"/>
<circle cx="860" cy="220" r="320" fill="#7a4cff" opacity=".12" filter="url(#soft)"/>
<circle cx="180" cy="1120" r="350" fill="#00c7b7" opacity=".10" filter="url(#soft)"/>
<rect width="1080" height="1350" fill="url(#glow)"/>
<g font-family="Helvetica,Arial,sans-serif" fill="#f4f2ef">
  <text x="70" y="92" font-size="25" letter-spacing="8" opacity=".8">SLOWFIELD AUDIO</text>
  <text x="70" y="205" font-size="82" font-weight="700" letter-spacing="2">STRANGE</text>
  <text x="70" y="285" font-size="82" font-weight="700" letter-spacing="2">STUDIES</text>
  <text x="72" y="340" font-size="28" letter-spacing="3" fill="#c4b7d9">FIVE TOOLS FOR THE UNEXPECTED</text>
</g>
<g transform="translate(70 420)" font-family="Helvetica,Arial,sans-serif">
  <g transform="translate(0 0)">
    <rect width="440" height="150" rx="24" fill="#ffffff" opacity=".07" stroke="#c8a8ff" stroke-opacity=".55"/>
    <text x="28" y="52" fill="#f4f2ef" font-size="28" font-weight="700">AFTERIMAGE</text>
    <text x="28" y="94" fill="#bfb8c8" font-size="21">spectral traces + memory</text>
    <path d="M300 95 C325 45 350 130 375 75 C392 38 410 105 425 63" fill="none" stroke="#c69cff" stroke-width="5" opacity=".8"/>
  </g>
  <g transform="translate(500 0)">
    <rect width="440" height="150" rx="24" fill="#ffffff" opacity=".07" stroke="#77e3d8" stroke-opacity=".55"/>
    <text x="28" y="52" fill="#f4f2ef" font-size="28" font-weight="700">MISREMEMBER</text>
    <text x="28" y="94" fill="#bfb8c8" font-size="21">degradation + imperfect recall</text>
    <circle cx="365" cy="77" r="34" fill="none" stroke="#77e3d8" stroke-width="5" opacity=".8"/>
    <circle cx="365" cy="77" r="18" fill="none" stroke="#77e3d8" stroke-width="3" opacity=".5"/>
  </g>
  <g transform="translate(0 190)">
    <rect width="440" height="150" rx="24" fill="#ffffff" opacity=".07" stroke="#ffbd70" stroke-opacity=".55"/>
    <text x="28" y="52" fill="#f4f2ef" font-size="28" font-weight="700">WRONG ROOM</text>
    <text x="28" y="94" fill="#bfb8c8" font-size="21">impossible spaces</text>
    <rect x="340" y="40" width="62" height="76" fill="none" stroke="#ffbd70" stroke-width="5"/>
    <line x1="355" y1="104" x2="392" y2="57" stroke="#ffbd70" stroke-width="4"/>
  </g>
  <g transform="translate(500 190)">
    <rect width="440" height="150" rx="24" fill="#ffffff" opacity=".07" stroke="#ff7ca8" stroke-opacity=".55"/>
    <text x="28" y="52" fill="#f4f2ef" font-size="28" font-weight="700">GRAVITY</text>
    <text x="28" y="94" fill="#bfb8c8" font-size="21">attraction + movement</text>
    <circle cx="365" cy="77" r="8" fill="#ff7ca8"/><ellipse cx="365" cy="77" rx="54" ry="22" fill="none" stroke="#ff7ca8" stroke-width="4" transform="rotate(-28 365 77)"/>
  </g>
  <g transform="translate(250 380)">
    <rect width="440" height="150" rx="24" fill="#ffffff" opacity=".07" stroke="#8ad0ff" stroke-opacity=".55"/>
    <text x="28" y="52" fill="#f4f2ef" font-size="28" font-weight="700">NEGATIVE SPACE</text>
    <text x="28" y="94" fill="#bfb8c8" font-size="21">inverse ambience + removal</text>
    <rect x="338" y="44" width="70" height="70" rx="12" fill="none" stroke="#8ad0ff" stroke-width="4"/>
    <rect x="355" y="61" width="36" height="36" rx="6" fill="#8ad0ff" opacity=".35"/>
  </g>
</g>
<g font-family="Helvetica,Arial,sans-serif">
  <text x="70" y="1040" fill="#f4f2ef" font-size="31" font-weight="700">MAKE FAMILIAR SOUNDS BEHAVE STRANGELY.</text>
  <text x="70" y="1090" fill="#aaa3af" font-size="24">Experimental processors for texture, space and movement.</text>
  <rect x="70" y="1150" width="188" height="52" rx="26" fill="#e7dcff"/>
  <text x="101" y="1184" fill="#211929" font-size="22" font-weight="700">AU / VST3</text>
  <rect x="278" y="1150" width="150" height="52" rx="26" fill="#8ef0e5"/>
  <text x="322" y="1184" fill="#0d2522" font-size="22" font-weight="700">BETA</text>
  <text x="70" y="1272" fill="#d1ccd5" font-size="22" letter-spacing="2">EXPLORE • TEST • FEEDBACK</text>
  <text x="1010" y="1272" text-anchor="end" fill="#d1ccd5" font-size="22">slowfieldaudio.com</text>
</g>
</svg>